<svg width="32" height="32" viewBox="0 0 32 32" fill="none" xmlns="http://www.w3.org/2000/svg">
<path d="M14.6675 8.31977C14.9072 7.76828 15.04 7.15966 15.04 6.52C15.04 4.02367 13.0164 2 10.52 2C8.02371 2 6.00003 4.02367 6.00003 6.52C6.00003 7.59387 6.37451 8.58027 7.00003 9.35574V10C7.27002 10 7.45004 10.27 7.34003 10.52L3.53003 19.15L8.91003 21.35L14.67 8.32L14.6675 8.31977Z" fill="#568831"/>
<path d="M14.6675 8.31977C14.9072 7.76828 15.04 7.15966 15.04 6.52C15.04 4.02367 13.0164 2 10.52 2C8.02371 2 6.00003 4.02367 6.00003 6.52C6.00003 7.59387 6.37451 8.58027 7.00003 9.35574V10C7.27002 10 7.45004 10.27 7.34003 10.52L3.53003 19.15L8.91003 21.35L14.67 8.32L14.6675 8.31977Z" fill="url(#paint0_radial_5802_395)"/>
<path d="M14.6675 8.31977C14.9072 7.76828 15.04 7.15966 15.04 6.52C15.04 4.02367 13.0164 2 10.52 2C8.02371 2 6.00003 4.02367 6.00003 6.52C6.00003 7.59387 6.37451 8.58027 7.00003 9.35574V10C7.27002 10 7.45004 10.27 7.34003 10.52L3.53003 19.15L8.91003 21.35L14.67 8.32L14.6675 8.31977Z" fill="url(#paint1_radial_5802_395)"/>
<path d="M14.6675 8.31977C14.9072 7.76828 15.04 7.15966 15.04 6.52C15.04 4.02367 13.0164 2 10.52 2C8.02371 2 6.00003 4.02367 6.00003 6.52C6.00003 7.59387 6.37451 8.58027 7.00003 9.35574V10C7.27002 10 7.45004 10.27 7.34003 10.52L3.53003 19.15L8.91003 21.35L14.67 8.32L14.6675 8.31977Z" fill="url(#paint2_radial_5802_395)"/>
<path d="M14.6675 8.31977C14.9072 7.76828 15.04 7.15966 15.04 6.52C15.04 4.02367 13.0164 2 10.52 2C8.02371 2 6.00003 4.02367 6.00003 6.52C6.00003 7.59387 6.37451 8.58027 7.00003 9.35574V10C7.27002 10 7.45004 10.27 7.34003 10.52L3.53003 19.15L8.91003 21.35L14.67 8.32L14.6675 8.31977Z" fill="url(#paint3_radial_5802_395)"/>
<path d="M14.6675 8.31977C14.9072 7.76828 15.04 7.15966 15.04 6.52C15.04 4.02367 13.0164 2 10.52 2C8.02371 2 6.00003 4.02367 6.00003 6.52C6.00003 7.59387 6.37451 8.58027 7.00003 9.35574V10C7.27002 10 7.45004 10.27 7.34003 10.52L3.53003 19.15L8.91003 21.35L14.67 8.32L14.6675 8.31977Z" fill="url(#paint4_radial_5802_395)"/>
<path d="M11.7188 15L12.6016 13H6.23999L5.35999 15H11.7188Z" fill="url(#paint5_linear_5802_395)"/>
<path d="M11.7188 15L12.6016 13H6.23999L5.35999 15H11.7188Z" fill="url(#paint6_linear_5802_395)"/>
<path d="M7 3.67993L4.79 6.14993C4.29 6.68993 3.58 6.99993 2.84 6.99993H2.51C2.23 6.99993 2 7.22993 2 7.50993C2 8.87993 3.12 9.99993 4.49 9.99993H7V3.67993Z" fill="url(#paint7_radial_5802_395)"/>
<path d="M7 3.67993L4.79 6.14993C4.29 6.68993 3.58 6.99993 2.84 6.99993H2.51C2.23 6.99993 2 7.22993 2 7.50993C2 8.87993 3.12 9.99993 4.49 9.99993H7V3.67993Z" fill="url(#paint8_linear_5802_395)"/>
<path d="M7 3.67993L4.79 6.14993C4.29 6.68993 3.58 6.99993 2.84 6.99993H2.51C2.23 6.99993 2 7.22993 2 7.50993C2 8.87993 3.12 9.99993 4.49 9.99993H7V3.67993Z" fill="url(#paint9_linear_5802_395)"/>
<path d="M7 3.67993L4.79 6.14993C4.29 6.68993 3.58 6.99993 2.84 6.99993H2.51C2.23 6.99993 2 7.22993 2 7.50993C2 8.87993 3.12 9.99993 4.49 9.99993H7V3.67993Z" fill="url(#paint10_radial_5802_395)"/>
<path d="M10.4375 7.01562C10.7136 7.01562 10.9375 6.79177 10.9375 6.51562C10.9375 6.23948 10.7136 6.01562 10.4375 6.01562C10.1614 6.01562 9.9375 6.23948 9.9375 6.51562C9.9375 6.79177 10.1614 7.01562 10.4375 7.01562Z" fill="url(#paint11_radial_5802_395)"/>
<path d="M10.4375 7.01562C10.7136 7.01562 10.9375 6.79177 10.9375 6.51562C10.9375 6.23948 10.7136 6.01562 10.4375 6.01562C10.1614 6.01562 9.9375 6.23948 9.9375 6.51562C9.9375 6.79177 10.1614 7.01562 10.4375 7.01562Z" fill="url(#paint12_radial_5802_395)"/>
<path d="M10.4375 7.01562C10.7136 7.01562 10.9375 6.79177 10.9375 6.51562C10.9375 6.23948 10.7136 6.01562 10.4375 6.01562C10.1614 6.01562 9.9375 6.23948 9.9375 6.51562C9.9375 6.79177 10.1614 7.01562 10.4375 7.01562Z" fill="url(#paint13_linear_5802_395)"/>
<path d="M27.43 13.57C26.51 14.49 26.5 15 25.5 15L17.5 18.5L11.5 15H5.36C4.25 17.51 3 19.54 3 22C3 26.42 6.58 30 11 30H19C25.08 30 30 25.08 30 19V14.64C30 13.3 28.38 12.63 27.43 13.57Z" fill="url(#paint14_linear_5802_395)"/>
<path d="M27.43 13.57C26.51 14.49 26.5 15 25.5 15L17.5 18.5L11.5 15H5.36C4.25 17.51 3 19.54 3 22C3 26.42 6.58 30 11 30H19C25.08 30 30 25.08 30 19V14.64C30 13.3 28.38 12.63 27.43 13.57Z" fill="url(#paint15_radial_5802_395)"/>
<path d="M27.43 13.57C27.42 13.58 27.43 13.58 27.43 13.57C27.2617 13.7383 27.0859 13.8789 27 13.9531C27 15.4164 27 17.5366 27 19C27 25.08 22.08 30 16 30H19C25.08 30 30 25.08 30 19V14.64C30 13.3 28.38 12.63 27.43 13.57Z" fill="url(#paint16_linear_5802_395)"/>
<path d="M27.43 13.57C27.42 13.58 27.43 13.58 27.43 13.57C27.2617 13.7383 27.0859 13.8789 27 13.9531C27 15.4164 27 17.5366 27 19C27 25.08 22.08 30 16 30H19C25.08 30 30 25.08 30 19V14.64C30 13.3 28.38 12.63 27.43 13.57Z" fill="url(#paint17_radial_5802_395)"/>
<path d="M27.43 13.57C27.42 13.58 27.43 13.58 27.43 13.57C27.2617 13.7383 27.0859 13.8789 27 13.9531C27 15.4164 27 17.5366 27 19C27 25.08 22.08 30 16 30H19C25.08 30 30 25.08 30 19V14.64C30 13.3 28.38 12.63 27.43 13.57Z" fill="url(#paint18_radial_5802_395)"/>
<path d="M5.36 15C4.25 17.51 3 19.54 3 22C3 25.73 5.55 28.86 9 29.75V22.4C9 20.99 9.34 19.59 9.99 18.34L11.71 15H5.36Z" fill="url(#paint19_linear_5802_395)"/>
<path d="M5.36 15C4.25 17.51 3 19.54 3 22C3 25.73 5.55 28.86 9 29.75V22.4C9 20.99 9.34 19.59 9.99 18.34L11.71 15H5.36Z" fill="url(#paint20_radial_5802_395)"/>
<path d="M5.36 15C4.25 17.51 3 19.54 3 22C3 25.73 5.55 28.86 9 29.75V22.4C9 20.99 9.34 19.59 9.99 18.34L11.71 15H5.36Z" fill="url(#paint21_radial_5802_395)"/>
<path d="M5.36 15C4.25 17.51 3 19.54 3 22C3 25.73 5.55 28.86 9 29.75V22.4C9 20.99 9.34 19.59 9.99 18.34L11.71 15H5.36Z" fill="url(#paint22_radial_5802_395)"/>
<path d="M26.9969 13.9548C26.1382 14.6312 25.0772 15.0001 23.98 15.0001H11.71L9.99002 18.3401C9.78357 18.7371 9.6084 19.1493 9.46545 19.5721C9.17365 20.4352 9.17197 21.3765 9.46939 22.2376C10.434 25.0305 12.7809 27.0001 15.5256 27.0001H20.373C22.4157 27.0001 24.497 26.2825 25.5218 24.5155C26.462 22.8946 27 21.0108 27 19.0001V14.6101C27 14.5986 26.9998 14.5494 26.9994 14.4745C26.9987 14.3522 26.9977 14.1615 26.9969 13.9548Z" fill="url(#paint23_linear_5802_395)"/>
<path d="M26.9969 13.9548C26.1382 14.6312 25.0772 15.0001 23.98 15.0001H11.71L9.99002 18.3401C9.78357 18.7371 9.6084 19.1493 9.46545 19.5721C9.17365 20.4352 9.17197 21.3765 9.46939 22.2376C10.434 25.0305 12.7809 27.0001 15.5256 27.0001H20.373C22.4157 27.0001 24.497 26.2825 25.5218 24.5155C26.462 22.8946 27 21.0108 27 19.0001V14.6101C27 14.5986 26.9998 14.5494 26.9994 14.4745C26.9987 14.3522 26.9977 14.1615 26.9969 13.9548Z" fill="url(#paint24_radial_5802_395)"/>
<path d="M26.9969 13.9548C26.1382 14.6312 25.0772 15.0001 23.98 15.0001H11.71L9.99002 18.3401C9.78357 18.7371 9.6084 19.1493 9.46545 19.5721C9.17365 20.4352 9.17197 21.3765 9.46939 22.2376C10.434 25.0305 12.7809 27.0001 15.5256 27.0001H20.373C22.4157 27.0001 24.497 26.2825 25.5218 24.5155C26.462 22.8946 27 21.0108 27 19.0001V14.6101C27 14.5986 26.9998 14.5494 26.9994 14.4745C26.9987 14.3522 26.9977 14.1615 26.9969 13.9548Z" fill="url(#paint25_radial_5802_395)"/>
<path d="M26.9969 13.9548C26.1382 14.6312 25.0772 15.0001 23.98 15.0001H11.71L9.99002 18.3401C9.78357 18.7371 9.6084 19.1493 9.46545 19.5721C9.17365 20.4352 9.17197 21.3765 9.46939 22.2376C10.434 25.0305 12.7809 27.0001 15.5256 27.0001H20.373C22.4157 27.0001 24.497 26.2825 25.5218 24.5155C26.462 22.8946 27 21.0108 27 19.0001V14.6101C27 14.5986 26.9998 14.5494 26.9994 14.4745C26.9987 14.3522 26.9977 14.1615 26.9969 13.9548Z" fill="url(#paint26_radial_5802_395)"/>
<path d="M26.9969 13.9548C26.1382 14.6312 25.0772 15.0001 23.98 15.0001H11.71L9.99002 18.3401C9.78357 18.7371 9.6084 19.1493 9.46545 19.5721C9.17365 20.4352 9.17197 21.3765 9.46939 22.2376C10.434 25.0305 12.7809 27.0001 15.5256 27.0001H20.373C22.4157 27.0001 24.497 26.2825 25.5218 24.5155C26.462 22.8946 27 21.0108 27 19.0001V14.6101C27 14.5986 26.9998 14.5494 26.9994 14.4745C26.9987 14.3522 26.9977 14.1615 26.9969 13.9548Z" fill="url(#paint27_radial_5802_395)"/>
<path d="M26.9969 13.9548C26.1382 14.6312 25.0772 15.0001 23.98 15.0001H11.71L9.99002 18.3401C9.78357 18.7371 9.6084 19.1493 9.46545 19.5721C9.17365 20.4352 9.17197 21.3765 9.46939 22.2376C10.434 25.0305 12.7809 27.0001 15.5256 27.0001H20.373C22.4157 27.0001 24.497 26.2825 25.5218 24.5155C26.462 22.8946 27 21.0108 27 19.0001V14.6101C27 14.5986 26.9998 14.5494 26.9994 14.4745C26.9987 14.3522 26.9977 14.1615 26.9969 13.9548Z" fill="url(#paint28_radial_5802_395)"/>
<defs>
<radialGradient id="paint0_radial_5802_395" cx="0" cy="0" r="1" gradientUnits="userSpaceOnUse" gradientTransform="translate(14.5 3.8125) rotate(126.978) scale(6.65001 7.19865)">
<stop stop-color="#71A650"/>
<stop offset="1" stop-color="#71A650" stop-opacity="0"/>
</radialGradient>
<radialGradient id="paint1_radial_5802_395" cx="0" cy="0" r="1" gradientUnits="userSpaceOnUse" gradientTransform="translate(10.8125 9.28125) rotate(-86.9124) scale(7.5422 6.93921)">
<stop offset="0.868395" stop-color="#71A650" stop-opacity="0"/>
<stop offset="1" stop-color="#71A650"/>
</radialGradient>
<radialGradient id="paint2_radial_5802_395" cx="0" cy="0" r="1" gradientUnits="userSpaceOnUse" gradientTransform="translate(6.43753 11.5) rotate(119.168) scale(3.07777 1.57506)">
<stop stop-color="#4C6634"/>
<stop offset="1" stop-color="#4C6634" stop-opacity="0"/>
</radialGradient>
<radialGradient id="paint3_radial_5802_395" cx="0" cy="0" r="1" gradientUnits="userSpaceOnUse" gradientTransform="translate(7.1564 10.4715) rotate(122.05) scale(3.44862 1.13168)">
<stop stop-color="#3E5833"/>
<stop offset="1" stop-color="#578931" stop-opacity="0"/>
</radialGradient>
<radialGradient id="paint4_radial_5802_395" cx="0" cy="0" r="1" gradientUnits="userSpaceOnUse" gradientTransform="translate(18.625 9.3125) rotate(-178.819) scale(6.06379 6.20647)">
<stop stop-color="#4C6634"/>
<stop offset="1" stop-color="#4C6634" stop-opacity="0"/>
</radialGradient>
<linearGradient id="paint5_linear_5802_395" x1="5.35999" y1="15" x2="11.5" y2="15" gradientUnits="userSpaceOnUse">
<stop stop-color="#B0ABAE"/>
<stop offset="0.608104" stop-color="#D9CFE3"/>
<stop offset="1" stop-color="#E2D9EB"/>
</linearGradient>
<linearGradient id="paint6_linear_5802_395" x1="12.9375" y1="15.5" x2="11.1875" y2="15" gradientUnits="userSpaceOnUse">
<stop stop-color="#B0ABAE"/>
<stop offset="1" stop-color="#B0ABAE" stop-opacity="0"/>
</linearGradient>
<radialGradient id="paint7_radial_5802_395" cx="0" cy="0" r="1" gradientUnits="userSpaceOnUse" gradientTransform="translate(3.78125 7.62493) scale(5.8125 5.4375)">
<stop stop-color="#FAC252"/>
<stop offset="1" stop-color="#D2A776"/>
</radialGradient>
<linearGradient id="paint8_linear_5802_395" x1="4.59375" y1="10.5156" x2="4.64063" y2="9.62493" gradientUnits="userSpaceOnUse">
<stop stop-color="#C9A37D"/>
<stop offset="1" stop-color="#C9A37D" stop-opacity="0"/>
</linearGradient>
<linearGradient id="paint9_linear_5802_395" x1="7" y1="2.96868" x2="6.15625" y2="6.24993" gradientUnits="userSpaceOnUse">
<stop stop-color="#E3B651"/>
<stop offset="1" stop-color="#E3B651" stop-opacity="0"/>
</linearGradient>
<radialGradient id="paint10_radial_5802_395" cx="0" cy="0" r="1" gradientUnits="userSpaceOnUse" gradientTransform="translate(2.5 6.43743) rotate(16.06) scale(6.43879 2.78731)">
<stop stop-color="#FFDA66"/>
<stop offset="1" stop-color="#FFDA66" stop-opacity="0"/>
</radialGradient>
<radialGradient id="paint11_radial_5802_395" cx="0" cy="0" r="1" gradientUnits="userSpaceOnUse" gradientTransform="translate(10.5859 6.35474) rotate(125.838) scale(0.693863 0.618607)">
<stop offset="0.00558659" stop-color="#433437"/>
<stop offset="1" stop-color="#3B2838"/>
</radialGradient>
<radialGradient id="paint12_radial_5802_395" cx="0" cy="0" r="1" gradientUnits="userSpaceOnUse" gradientTransform="translate(10.6244 6.39062) rotate(137.643) scale(0.35946 0.316238)">
<stop stop-color="#5C5051"/>
<stop offset="1" stop-color="#5C5051" stop-opacity="0"/>
</radialGradient>
<linearGradient id="paint13_linear_5802_395" x1="10.3392" y1="6.1229" x2="9.99545" y2="5.90415" gradientUnits="userSpaceOnUse">
<stop stop-color="#5C5051" stop-opacity="0"/>
<stop offset="1" stop-color="#5C5051"/>
</linearGradient>
<linearGradient id="paint14_linear_5802_395" x1="18.8125" y1="33.75" x2="18.8125" y2="27.2193" gradientUnits="userSpaceOnUse">
<stop offset="0.254717" stop-color="#997BB6"/>
<stop offset="1" stop-color="#C0AED3"/>
</linearGradient>
<radialGradient id="paint15_radial_5802_395" cx="0" cy="0" r="1" gradientUnits="userSpaceOnUse" gradientTransform="translate(16.5 23.0625) rotate(90) scale(5.9375 7.81225)">
<stop offset="0.6657" stop-color="#A58CBE"/>
<stop offset="0.883565" stop-color="#A58CBE" stop-opacity="0"/>
</radialGradient>
<linearGradient id="paint16_linear_5802_395" x1="26.125" y1="29.0625" x2="28.0625" y2="16.875" gradientUnits="userSpaceOnUse">
<stop stop-color="#9883AD"/>
<stop offset="1" stop-color="#F8F5FC"/>
</linearGradient>
<radialGradient id="paint17_radial_5802_395" cx="0" cy="0" r="1" gradientUnits="userSpaceOnUse" gradientTransform="translate(31.4375 19.125) rotate(180) scale(2.875 6.9375)">
<stop stop-color="#E7E4EA"/>
<stop offset="0.0001" stop-color="#D8D4DD"/>
<stop offset="1" stop-color="#D8D4DD" stop-opacity="0"/>
</radialGradient>
<radialGradient id="paint18_radial_5802_395" cx="0" cy="0" r="1" gradientUnits="userSpaceOnUse" gradientTransform="translate(26.125 15.375) rotate(15.124) scale(2.39547 5.16111)">
<stop stop-color="#E7E4EA"/>
<stop offset="0.0001" stop-color="#D8D4DD"/>
<stop offset="0.884275" stop-color="#D8D4DD" stop-opacity="0"/>
</radialGradient>
<linearGradient id="paint19_linear_5802_395" x1="7.355" y1="13.8125" x2="8.41542" y2="30.1469" gradientUnits="userSpaceOnUse">
<stop stop-color="#794E49"/>
<stop offset="1" stop-color="#5B2A3F"/>
</linearGradient>
<radialGradient id="paint20_radial_5802_395" cx="0" cy="0" r="1" gradientUnits="userSpaceOnUse" gradientTransform="translate(8.96009 20.5472) rotate(77.7047) scale(10.8703 4.69007)">
<stop stop-color="#7C4E4B"/>
<stop offset="1" stop-color="#7C4E4B" stop-opacity="0"/>
</radialGradient>
<radialGradient id="paint21_radial_5802_395" cx="0" cy="0" r="1" gradientUnits="userSpaceOnUse" gradientTransform="translate(11.4688 16.875) rotate(-153.812) scale(2.12431 3.53998)">
<stop stop-color="#87645F"/>
<stop offset="1" stop-color="#87645F" stop-opacity="0"/>
</radialGradient>
<radialGradient id="paint22_radial_5802_395" cx="0" cy="0" r="1" gradientUnits="userSpaceOnUse" gradientTransform="translate(10.9005 20.5472) rotate(-78.0849) scale(11.3767 5.04645)">
<stop offset="0.279107" stop-color="#533733"/>
<stop offset="0.497762" stop-color="#7B4C4A" stop-opacity="0"/>
</radialGradient>
<linearGradient id="paint23_linear_5802_395" x1="18.1233" y1="14.606" x2="18.1233" y2="27.0001" gradientUnits="userSpaceOnUse">
<stop offset="0.0465472" stop-color="#DBD8DE"/>
<stop offset="0.527535" stop-color="#C5BBD1"/>
<stop offset="1" stop-color="#A28DB6"/>
</linearGradient>
<radialGradient id="paint24_radial_5802_395" cx="0" cy="0" r="1" gradientUnits="userSpaceOnUse" gradientTransform="translate(9.24646 27.9001) rotate(-59.1619) scale(10.8632 11.1574)">
<stop stop-color="#988BA4"/>
<stop offset="1" stop-color="#988BA4" stop-opacity="0"/>
</radialGradient>
<radialGradient id="paint25_radial_5802_395" cx="0" cy="0" r="1" gradientUnits="userSpaceOnUse" gradientTransform="translate(18.1233 6.86251) rotate(97.6238) scale(20.3172 21.5611)">
<stop offset="0.939888" stop-color="#988BA4" stop-opacity="0"/>
<stop offset="1" stop-color="#907CA3"/>
</radialGradient>
<radialGradient id="paint26_radial_5802_395" cx="0" cy="0" r="1" gradientUnits="userSpaceOnUse" gradientTransform="translate(27.6875 13.0626) rotate(129.901) scale(9.13512 9.13444)">
<stop stop-color="#F5F1FA"/>
<stop offset="1" stop-color="#D1C7DC" stop-opacity="0"/>
</radialGradient>
<radialGradient id="paint27_radial_5802_395" cx="0" cy="0" r="1" gradientUnits="userSpaceOnUse" gradientTransform="translate(28.375 12.6251) rotate(150.62) scale(17.0706 8.31848)">
<stop stop-color="#F5F1FA"/>
<stop offset="1" stop-color="#E4DDEC" stop-opacity="0"/>
</radialGradient>
<radialGradient id="paint28_radial_5802_395" cx="0" cy="0" r="1" gradientUnits="userSpaceOnUse" gradientTransform="translate(4.5 17.5) rotate(29.7536) scale(14.7831 20.1186)">
<stop stop-color="#D1CAD9"/>
<stop offset="1" stop-color="#D1CAD9" stop-opacity="0"/>
</radialGradient>
</defs>
</svg>
