<svg width="94" height="94" viewBox="0 0 94 94" fill="none" xmlns="http://www.w3.org/2000/svg">
<path d="M46.9967 88.1184C74.4167 88.1184 88.1184 69.7076 88.1184 46.9967C88.1184 24.2858 74.4167 5.875 46.9967 5.875C19.5768 5.875 5.875 24.2858 5.875 46.9967C5.875 69.7076 19.5768 88.1184 46.9967 88.1184Z" fill="url(#paint0_radial_5802_432)"/>
<path d="M46.9967 88.1184C74.4167 88.1184 88.1184 69.7076 88.1184 46.9967C88.1184 24.2858 74.4167 5.875 46.9967 5.875C19.5768 5.875 5.875 24.2858 5.875 46.9967C5.875 69.7076 19.5768 88.1184 46.9967 88.1184Z" fill="url(#paint1_radial_5802_432)"/>
<path d="M46.9967 88.1184C74.4167 88.1184 88.1184 69.7076 88.1184 46.9967C88.1184 24.2858 74.4167 5.875 46.9967 5.875C19.5768 5.875 5.875 24.2858 5.875 46.9967C5.875 69.7076 19.5768 88.1184 46.9967 88.1184Z" fill="url(#paint2_radial_5802_432)" fill-opacity="0.6"/>
<path d="M46.9967 88.1184C74.4167 88.1184 88.1184 69.7076 88.1184 46.9967C88.1184 24.2858 74.4167 5.875 46.9967 5.875C19.5768 5.875 5.875 24.2858 5.875 46.9967C5.875 69.7076 19.5768 88.1184 46.9967 88.1184Z" fill="url(#paint3_radial_5802_432)"/>
<path d="M46.9967 88.1184C74.4167 88.1184 88.1184 69.7076 88.1184 46.9967C88.1184 24.2858 74.4167 5.875 46.9967 5.875C19.5768 5.875 5.875 24.2858 5.875 46.9967C5.875 69.7076 19.5768 88.1184 46.9967 88.1184Z" fill="url(#paint4_radial_5802_432)"/>
<path d="M46.9967 88.1184C74.4167 88.1184 88.1184 69.7076 88.1184 46.9967C88.1184 24.2858 74.4167 5.875 46.9967 5.875C19.5768 5.875 5.875 24.2858 5.875 46.9967C5.875 69.7076 19.5768 88.1184 46.9967 88.1184Z" fill="url(#paint5_radial_5802_432)"/>
<path d="M46.9967 88.1184C74.4167 88.1184 88.1184 69.7076 88.1184 46.9967C88.1184 24.2858 74.4167 5.875 46.9967 5.875C19.5768 5.875 5.875 24.2858 5.875 46.9967C5.875 69.7076 19.5768 88.1184 46.9967 88.1184Z" fill="url(#paint6_radial_5802_432)"/>
<path d="M46.9967 88.1184C74.4167 88.1184 88.1184 69.7076 88.1184 46.9967C88.1184 24.2858 74.4167 5.875 46.9967 5.875C19.5768 5.875 5.875 24.2858 5.875 46.9967C5.875 69.7076 19.5768 88.1184 46.9967 88.1184Z" fill="url(#paint7_radial_5802_432)"/>
<path d="M46.9967 88.1184C74.4167 88.1184 88.1184 69.7076 88.1184 46.9967C88.1184 24.2858 74.4167 5.875 46.9967 5.875C19.5768 5.875 5.875 24.2858 5.875 46.9967C5.875 69.7076 19.5768 88.1184 46.9967 88.1184Z" fill="url(#paint8_radial_5802_432)"/>
<path d="M46.9967 88.1184C74.4167 88.1184 88.1184 69.7076 88.1184 46.9967C88.1184 24.2858 74.4167 5.875 46.9967 5.875C19.5768 5.875 5.875 24.2858 5.875 46.9967C5.875 69.7076 19.5768 88.1184 46.9967 88.1184Z" fill="url(#paint9_radial_5802_432)"/>
<path d="M46.9967 88.1184C74.4167 88.1184 88.1184 69.7076 88.1184 46.9967C88.1184 24.2858 74.4167 5.875 46.9967 5.875C19.5768 5.875 5.875 24.2858 5.875 46.9967C5.875 69.7076 19.5768 88.1184 46.9967 88.1184Z" fill="url(#paint10_radial_5802_432)"/>
<path d="M30.8438 16.8906C37.7387 16.8906 43.3281 22.4801 43.3281 29.375C43.3281 36.2699 37.7387 41.8594 30.8438 41.8594C23.9488 41.8594 18.3594 36.2699 18.3594 29.375C18.3594 22.4801 23.9488 16.8906 30.8438 16.8906ZM63.1562 16.8906C70.0512 16.8906 75.6406 22.4801 75.6406 29.375C75.6406 36.2699 70.0512 41.8594 63.1562 41.8594C56.2613 41.8594 50.6719 36.2699 50.6719 29.375C50.6719 22.4801 56.2613 16.8906 63.1562 16.8906Z" fill="white"/>
<path d="M32.3125 22.7656C35.9628 22.7656 38.9219 25.7247 38.9219 29.375C38.9219 33.0253 35.9628 35.9844 32.3125 35.9844C28.6622 35.9844 25.7031 33.0253 25.7031 29.375C25.7031 25.7247 28.6622 22.7656 32.3125 22.7656ZM61.6875 22.7656C65.3378 22.7656 68.2969 25.7247 68.2969 29.375C68.2969 33.0253 65.3378 35.9844 61.6875 35.9844C58.0372 35.9844 55.0781 33.0253 55.0781 29.375C55.0781 25.7247 58.0372 22.7656 61.6875 22.7656Z" fill="url(#paint11_linear_5802_432)"/>
<path d="M47 73.4375C20.5625 73.4375 20.5625 47 20.5625 47H73.4375C73.4375 47 73.4375 73.4375 47 73.4375Z" fill="url(#paint12_radial_5802_432)"/>
<path d="M23.5 50.4062V47H70.5V50.4062C70.5 50.9585 70.0523 51.4062 69.5 51.4062H24.5C23.9477 51.4062 23.5 50.9585 23.5 50.4062Z" fill="url(#paint13_linear_5802_432)"/>
<defs>
<radialGradient id="paint0_radial_5802_432" cx="0" cy="0" r="1" gradientUnits="userSpaceOnUse" gradientTransform="translate(74.9063 26.4375) rotate(131.878) scale(114.412)">
<stop stop-color="#FFF478"/>
<stop offset="0.474827" stop-color="#FFB02E"/>
<stop offset="1" stop-color="#F70A8D"/>
</radialGradient>
<radialGradient id="paint1_radial_5802_432" cx="0" cy="0" r="1" gradientUnits="userSpaceOnUse" gradientTransform="translate(47 36.7188) rotate(101.31) scale(52.4243 67.1455)">
<stop offset="0.787821" stop-color="#F59639" stop-opacity="0"/>
<stop offset="0.972509" stop-color="#FF7DCE"/>
</radialGradient>
<radialGradient id="paint2_radial_5802_432" cx="0" cy="0" r="1" gradientUnits="userSpaceOnUse" gradientTransform="translate(52.875 41.125) rotate(135) scale(120.473)">
<stop offset="0.314853" stop-opacity="0"/>
<stop offset="1"/>
</radialGradient>
<radialGradient id="paint3_radial_5802_432" cx="0" cy="0" r="1" gradientUnits="userSpaceOnUse" gradientTransform="translate(47 49.9375) rotate(77.692) scale(82.6816)">
<stop offset="0.507903" stop-color="#7D6133" stop-opacity="0"/>
<stop offset="1" stop-color="#715B32"/>
</radialGradient>
<radialGradient id="paint4_radial_5802_432" cx="0" cy="0" r="1" gradientUnits="userSpaceOnUse" gradientTransform="translate(48.4687 48.4688) rotate(55.7131) scale(39.1085 28.3478)">
<stop stop-color="#FFB849"/>
<stop offset="1" stop-color="#FFB847" stop-opacity="0"/>
</radialGradient>
<radialGradient id="paint5_radial_5802_432" cx="0" cy="0" r="1" gradientUnits="userSpaceOnUse" gradientTransform="translate(60.2188 52.875) rotate(9.86581) scale(34.2883)">
<stop stop-color="#FFA64B"/>
<stop offset="0.900412" stop-color="#FFAE46" stop-opacity="0"/>
</radialGradient>
<radialGradient id="paint6_radial_5802_432" cx="0" cy="0" r="1" gradientUnits="userSpaceOnUse" gradientTransform="translate(51.4062 44.0625) rotate(43.9708) scale(173.468)">
<stop offset="0.185425" stop-opacity="0"/>
<stop offset="1" stop-opacity="0.4"/>
</radialGradient>
<radialGradient id="paint7_radial_5802_432" cx="0" cy="0" r="1" gradientUnits="userSpaceOnUse" gradientTransform="translate(24.9687 30.8437) rotate(83.6598) scale(13.3001 10.7642)">
<stop offset="0.47452" stop-color="#B3671F"/>
<stop offset="0.781916" stop-color="#B3671F" stop-opacity="0.236695"/>
<stop offset="0.873485" stop-color="#B3671F" stop-opacity="0.0865443"/>
<stop offset="0.948588" stop-color="#B3671F" stop-opacity="0"/>
</radialGradient>
<radialGradient id="paint8_radial_5802_432" cx="0" cy="0" r="1" gradientUnits="userSpaceOnUse" gradientTransform="translate(57.2812 27.9062) rotate(102.529) scale(13.5412 10.4342)">
<stop offset="0.308886" stop-color="#D57B2A"/>
<stop offset="0.773417" stop-color="#E28B30" stop-opacity="0.15"/>
<stop offset="0.936131" stop-color="#E28B30" stop-opacity="0"/>
</radialGradient>
<radialGradient id="paint9_radial_5802_432" cx="0" cy="0" r="1" gradientUnits="userSpaceOnUse" gradientTransform="translate(31.1521 31.2692) rotate(84.716) scale(11.9592)">
<stop offset="0.359039" stop-color="#C84E28"/>
<stop offset="1" stop-color="#C84528" stop-opacity="0"/>
</radialGradient>
<radialGradient id="paint10_radial_5802_432" cx="0" cy="0" r="1" gradientUnits="userSpaceOnUse" gradientTransform="translate(62.6807 30.8954) rotate(104.846) scale(12.6352)">
<stop offset="0.359039" stop-color="#C84E28"/>
<stop offset="1" stop-color="#C84528" stop-opacity="0"/>
</radialGradient>
<linearGradient id="paint11_linear_5802_432" x1="48.4687" y1="23.5" x2="48.4687" y2="35.25" gradientUnits="userSpaceOnUse">
<stop stop-color="#553B3E"/>
<stop offset="1" stop-color="#3D2432"/>
</linearGradient>
<radialGradient id="paint12_radial_5802_432" cx="0" cy="0" r="1" gradientUnits="userSpaceOnUse" gradientTransform="translate(47 79.3125) rotate(-90) scale(32.3125 64.625)">
<stop stop-color="#F70A8D"/>
<stop offset="1" stop-color="#89029C"/>
</radialGradient>
<linearGradient id="paint13_linear_5802_432" x1="47" y1="47" x2="47" y2="51.4062" gradientUnits="userSpaceOnUse">
<stop stop-color="#ECCDFF"/>
<stop offset="1" stop-color="white"/>
</linearGradient>
</defs>
</svg>
